<svg width="240" height="240" viewBox="0 0 240 240" fill="none" xmlns="http://www.w3.org/2000/svg">
<mask id="mask0_76_3" style="mask-type:luminance" maskUnits="userSpaceOnUse" x="0" y="0" width="241" height="240">
<path d="M120.001 0H120C53.7258 0 0 53.7258 0 120C0 186.274 53.7258 240 120 240H120.001C186.275 240 240.001 186.274 240.001 120C240.001 53.7258 186.275 0 120.001 0Z" fill="white"/>
</mask>
<g mask="url(#mask0_76_3)">
<path d="M199.755 229.316C199.752 212.225 194.274 195.585 184.122 181.835C173.971 168.086 159.681 157.95 143.349 152.915C140.973 152.152 138.902 150.651 137.436 148.63C135.971 146.61 135.187 144.175 135.2 141.679V131.511C135.206 129.271 135.962 127.098 137.347 125.338C138.733 123.579 140.668 122.334 142.844 121.803C163.437 116.653 181.717 104.767 194.78 88.036C207.843 71.305 214.939 50.687 214.94 29.46H24.6582C24.6584 50.261 31.4705 70.489 44.0531 87.052C56.6356 103.615 74.2961 115.602 94.3347 121.18C96.4557 121.746 98.3317 122.995 99.6727 124.733C101.014 126.472 101.747 128.603 101.757 130.798V142.555C101.748 145.039 100.959 147.459 99.5027 149.472C98.0457 151.485 95.9947 152.991 93.6367 153.776C77.8674 159.249 64.2064 169.521 54.5698 183.15C44.9332 196.78 39.8044 213.084 39.9027 229.776V243.967H199.77V229.776C199.74 229.628 199.755 229.479 199.755 229.316Z" fill="#CDF1FF"/>
<path d="M61.2771 74.0769C60.2272 74.0779 59.1998 74.3819 58.3174 74.9499C57.435 75.5189 56.7347 76.3299 56.2999 77.2859C55.8651 78.2409 55.7141 79.3019 55.8649 80.3409C56.0157 81.3799 56.462 82.3539 57.1505 83.1459C69.3693 97.3849 86.1637 106.926 104.651 110.132L106.135 110.384C107.543 110.609 108.823 111.332 109.741 112.422C110.66 113.512 111.155 114.896 111.138 116.322V140.072C111.107 142.159 111.847 144.183 113.216 145.758C114.586 147.333 116.488 148.348 118.559 148.607C119.702 148.716 120.854 148.586 121.944 148.224C123.033 147.863 124.034 147.277 124.884 146.506C125.733 145.734 126.413 144.794 126.878 143.745C127.343 142.696 127.583 141.561 127.584 140.413V116.441C127.588 114.993 128.114 113.595 129.066 112.505C130.018 111.414 131.331 110.703 132.765 110.503C152.128 107.671 169.812 97.9269 182.551 83.0719C183.202 82.2699 183.612 81.2999 183.735 80.2749C183.857 79.2489 183.686 78.2099 183.241 77.2779C182.797 76.3449 182.097 75.5579 181.224 75.0069C180.35 74.4569 179.338 74.1649 178.305 74.1659L61.2771 74.0769Z" fill="#4AC0DC"/>
<path d="M190.196 234.744C190.196 235.011 190.196 240.682 190.196 249.083H49.4321V234.744C49.4321 192.276 81.2867 161.847 119.807 161.847C158.326 161.847 190.196 192.276 190.196 234.744Z" fill="#E1BFF7"/>
<path fill-rule="evenodd" clip-rule="evenodd" d="M110.644 199.164C112.368 200.146 112.97 202.339 111.989 204.063C110.761 206.219 109.065 208.072 107.025 209.484C104.985 210.896 102.654 211.831 100.204 212.221C97.7536 212.61 95.2476 212.444 92.8706 211.734C90.4926 211.024 88.3056 209.789 86.4706 208.12C85.0026 206.786 84.8946 204.514 86.2296 203.046C87.5636 201.578 89.8356 201.47 91.3036 202.805C92.3426 203.75 93.5806 204.448 94.9256 204.85C96.2706 205.252 97.6896 205.346 99.0756 205.125C100.463 204.905 101.782 204.376 102.936 203.577C104.091 202.777 105.051 201.729 105.745 200.509C106.727 198.785 108.92 198.183 110.644 199.164Z" fill="#29181B"/>
<path fill-rule="evenodd" clip-rule="evenodd" d="M149.532 193.203C151.261 194.175 151.876 196.364 150.904 198.094C149.689 200.256 148.004 202.118 145.973 203.542C143.943 204.967 141.618 205.916 139.171 206.322C136.725 206.728 134.218 206.579 131.836 205.886C129.455 205.194 127.259 203.975 125.411 202.321C123.933 200.997 123.808 198.726 125.131 197.248C126.455 195.77 128.726 195.645 130.204 196.969C131.25 197.906 132.494 198.596 133.842 198.988C135.191 199.38 136.611 199.464 137.996 199.235C139.382 199.005 140.698 198.467 141.848 197.66C142.998 196.854 143.953 195.799 144.641 194.575C145.612 192.845 147.802 192.231 149.532 193.203Z" fill="#29181B"/>
<path d="M120.059 222.592C120.879 222.592 121.543 220.931 121.543 218.881C121.543 216.832 120.879 215.17 120.059 215.17C119.239 215.17 118.574 216.832 118.574 218.881C118.574 220.931 119.239 222.592 120.059 222.592Z" fill="#666666"/>
<path fill-rule="evenodd" clip-rule="evenodd" d="M122.354 217.568C122.354 217.568 122.352 217.573 122.347 217.583C122.352 217.572 122.354 217.568 122.354 217.568ZM117.764 217.568C117.764 217.568 117.766 217.572 117.771 217.583C117.766 217.573 117.764 217.568 117.764 217.568ZM117.764 220.192C117.764 220.192 117.766 220.186 117.771 220.176C117.766 220.187 117.764 220.192 117.764 220.192ZM122.347 220.176C122.352 220.186 122.354 220.192 122.354 220.192C122.354 220.192 122.352 220.187 122.347 220.176ZM116.871 212.992C117.472 212.357 118.548 211.577 120.059 211.577C121.57 211.577 122.646 212.357 123.247 212.992C123.84 213.62 124.209 214.335 124.444 214.922C124.921 216.114 125.136 217.515 125.136 218.88C125.136 220.244 124.921 221.645 124.444 222.838C124.209 223.424 123.84 224.14 123.247 224.767C122.646 225.402 121.57 226.183 120.059 226.183C118.548 226.183 117.472 225.402 116.871 224.767C116.278 224.14 115.909 223.424 115.674 222.838C115.197 221.645 114.982 220.244 114.982 218.88C114.982 217.515 115.197 216.114 115.674 214.922C115.909 214.335 116.278 213.62 116.871 212.992Z" fill="#29181B"/>
</g>
<path d="M220.032 143.075C215.891 146.919 201.359 152.337 189.84 156.226C188.48 156.696 187.012 156.759 185.616 156.409C184.22 156.059 182.956 155.311 181.977 154.256C180.999 153.2 180.349 151.883 180.105 150.464C179.862 149.046 180.037 147.587 180.607 146.266C185.342 135.074 191.844 121.032 195.971 117.143C199.432 114.094 203.948 112.517 208.556 112.749C213.163 112.981 217.498 115.004 220.636 118.385C223.774 121.767 225.467 126.241 225.354 130.853C225.241 135.465 223.332 139.85 220.032 143.075Z" fill="#CDF1FF"/>
<path d="M36.4761 152.973C39.148 152.127 46.3472 152.661 52.6112 153.359C53.5685 153.462 54.4748 153.843 55.2187 154.454C55.9626 155.066 56.5117 155.881 56.7987 156.8C57.0856 157.719 57.0978 158.702 56.8339 159.628C56.5699 160.554 56.0412 161.383 55.3127 162.013C50.5628 166.169 44.9222 170.696 42.28 171.542C41.0607 171.924 39.7783 172.061 38.506 171.946C37.2337 171.832 35.9964 171.468 34.8648 170.875C32.5793 169.678 30.863 167.622 30.0934 165.16C29.3237 162.697 29.5638 160.03 30.7608 157.744C31.9578 155.459 34.0137 153.743 36.4761 152.973Z" fill="#CDF1FF"/>
<path d="M35.5845 110.285C38.5532 112.838 43.5258 122.398 47.207 130.146C47.659 131.093 47.8273 132.15 47.6917 133.19C47.556 134.23 47.1222 135.208 46.4426 136.007C45.7629 136.806 44.8666 137.391 43.8617 137.692C42.8569 137.993 41.7865 137.996 40.7797 137.702C32.5415 135.312 22.3142 131.972 19.3158 129.404C16.7805 127.239 15.2092 124.155 14.9475 120.831C14.6858 117.507 15.7552 114.216 17.9205 111.681C20.0857 109.145 23.1694 107.574 26.4932 107.312C29.8169 107.051 33.1085 108.12 35.6438 110.285H35.5845Z" fill="#CDF1FF"/>
<path d="M204.713 12.7271H32.2432C22.9959 12.7271 15.4995 20.223 15.4995 29.471C15.4995 38.718 22.9959 46.214 32.2432 46.214H204.713C213.96 46.214 221.457 38.718 221.457 29.471C221.457 20.223 213.96 12.7271 204.713 12.7271Z" fill="#80DAFF"/>
<path d="M114.953 12.7271H72.5591C63.3118 12.7271 55.8154 20.223 55.8154 29.471C55.8154 38.718 63.3118 46.214 72.5591 46.214H114.953C124.2 46.214 131.697 38.718 131.697 29.471C131.697 20.223 124.2 12.7271 114.953 12.7271Z" fill="#A5E9FF"/>
<path d="M205.025 12.7271H190.003C180.755 12.7271 173.259 20.223 173.259 29.471C173.259 38.718 180.755 46.214 190.003 46.214H205.025C214.272 46.214 221.768 38.718 221.768 29.471C221.768 20.223 214.272 12.7271 205.025 12.7271Z" fill="#4AC0DC"/>
</svg>
