<svg width="449" height="517" viewBox="0 0 449 517" fill="none" xmlns="http://www.w3.org/2000/svg">
<g opacity="0.8">
<path fill-rule="evenodd" clip-rule="evenodd" d="M358.255 282.719C358.165 337.682 358.027 419.969 358.027 419.969C358.027 446.618 336.38 468.243 309.699 468.243C290.032 468.243 273.11 456.516 265.489 439.613C258.018 455.299 242.163 466.11 223.715 466.11C205.268 466.11 189.413 455.299 181.942 439.613C174.471 456.516 157.549 468.243 137.73 468.243C111.05 468.243 89.2484 446.465 89.2484 419.816C89.2484 419.816 89.1802 337.827 89.135 282.863C74.4894 280.068 48.0859 261.321 48.0859 236.626V235.713V235.256C48.0859 229.317 48.5434 223.529 49.6105 218.047C53.4219 195.968 64.7037 177.085 81.7787 165.815C82.1509 165.603 82.528 165.386 82.9087 165.166C84.7104 164.128 86.5995 163.04 88.4869 162.161H88.6392H88.7918C91.536 161.095 94.585 160.485 97.7867 160.485C101.225 160.485 104.509 161.145 107.517 162.345C131.013 120.939 174.543 94.9988 223.715 94.9988C272.82 95.1015 316.298 121.005 339.816 162.321C342.808 161.137 346.072 160.485 349.49 160.485C352.69 160.485 355.739 161.095 358.484 162.161H358.637H358.788C360.676 163.04 362.563 164.128 364.366 165.166L364.373 165.17C364.751 165.389 365.127 165.605 365.496 165.815C382.724 176.779 393.853 195.815 397.818 217.743C398.885 223.378 399.342 229.164 399.342 235.103V235.56V236.473C399.342 261.19 372.895 279.948 358.255 282.719Z" fill="#EEEAFD"/>
<mask id="mask0_61_79" style="mask-type:luminance" maskUnits="userSpaceOnUse" x="0" y="46" width="449" height="471">
<path d="M448.071 46.9287H0V516.704H448.071V46.9287Z" fill="white"/>
<path fill-rule="evenodd" clip-rule="evenodd" d="M358.255 282.719C358.165 337.682 358.027 419.969 358.027 419.969C358.027 446.618 336.38 468.243 309.699 468.243C290.032 468.243 273.11 456.516 265.489 439.613C258.018 455.299 242.163 466.11 223.715 466.11C205.268 466.11 189.413 455.299 181.942 439.613C174.471 456.516 157.549 468.243 137.73 468.243C111.05 468.243 89.2484 446.465 89.2484 419.816C89.2484 419.816 89.1802 337.827 89.135 282.863C74.4894 280.068 48.0859 261.321 48.0859 236.626V235.713V235.256C48.0859 229.317 48.5434 223.529 49.6105 218.047C53.4219 195.968 64.7037 177.085 81.7787 165.815C82.1509 165.603 82.528 165.386 82.9087 165.166C84.7104 164.128 86.5995 163.04 88.4869 162.161H88.6392H88.7918C91.536 161.095 94.585 160.485 97.7867 160.485C101.225 160.485 104.509 161.145 107.517 162.345C131.013 120.939 174.543 94.9988 223.715 94.9988C272.82 95.1015 316.298 121.005 339.816 162.321C342.808 161.137 346.072 160.485 349.49 160.485C352.69 160.485 355.739 161.095 358.484 162.161H358.637H358.788C360.676 163.04 362.563 164.128 364.366 165.166L364.373 165.17C364.751 165.389 365.127 165.605 365.496 165.815C382.724 176.779 393.853 195.815 397.818 217.743C398.885 223.378 399.342 229.164 399.342 235.103V235.56V236.473C399.342 261.19 372.895 279.948 358.255 282.719Z" fill="white"/>
</mask>
<g mask="url(#mask0_61_79)">
<path d="M358.255 282.719L349.475 236.346L311.109 243.607L311.043 282.64L358.255 282.719ZM358.027 419.969L310.816 419.891V419.93V419.969H358.027ZM265.489 439.613L308.528 420.216L266.656 327.369L222.861 419.325L265.489 439.613ZM181.942 439.613L224.568 419.325L180.338 326.456L138.757 420.54L181.942 439.613ZM89.2484 419.816H136.46V419.797V419.777L89.2484 419.816ZM89.135 282.863L136.347 282.826L136.314 243.819L97.988 236.506L89.135 282.863ZM49.6105 218.047L95.9526 227.062L96.0488 226.568L96.1345 226.073L49.6105 218.047ZM81.7787 165.815L58.3693 124.831L57.0428 125.587L55.7678 126.428L81.7787 165.815ZM82.9087 165.166L106.479 206.06L106.597 205.992L106.716 205.922L82.9087 165.166ZM82.9087 165.166L59.3386 124.273L59.2208 124.341L59.1032 124.409L82.9087 165.166ZM88.4869 162.161V114.965H78.0208L68.535 119.386L88.4869 162.161ZM88.7918 162.161V209.357H97.642L105.891 206.152L88.7918 162.161ZM107.517 162.345L90.0287 206.182L128.268 221.427L148.581 185.633L107.517 162.345ZM223.715 94.9987L223.811 47.8027H223.763H223.715V94.9987ZM339.816 162.321L298.784 185.663L319.067 221.298L357.201 206.202L339.816 162.321ZM358.484 162.161L341.385 206.152L349.634 209.357H358.484V162.161ZM358.788 162.161L378.741 119.386L369.255 114.965H358.788V162.161ZM364.366 165.166L340.793 206.058L340.808 206.067L364.366 165.166ZM364.373 165.17L387.943 124.276L387.928 124.269L364.373 165.17ZM365.496 165.815L390.852 126.004L389.893 125.392L388.905 124.828L365.496 165.815ZM397.818 217.743L351.359 226.136L351.394 226.33L351.431 226.525L397.818 217.743ZM311.043 282.64C311 310.123 310.943 344.434 310.897 371.875C310.875 385.597 310.853 397.602 310.84 406.173C310.833 410.46 310.827 413.891 310.823 416.246C310.82 417.426 310.82 418.337 310.818 418.953C310.818 419.261 310.818 419.495 310.818 419.653C310.818 419.731 310.818 419.79 310.816 419.83C310.816 419.849 310.816 419.865 310.816 419.875C310.816 419.88 310.816 419.884 310.816 419.886C310.816 419.889 310.816 419.891 310.816 419.891C310.816 419.893 310.816 419.891 358.027 419.969C405.239 420.048 405.239 420.046 405.239 420.046V420.044C405.239 420.042 405.241 420.037 405.241 420.033C405.241 420.022 405.241 420.007 405.241 419.987C405.241 419.948 405.241 419.889 405.241 419.81C405.241 419.653 405.241 419.417 405.241 419.111C405.243 418.495 405.243 417.583 405.245 416.404C405.25 414.046 405.256 410.618 405.263 406.331C405.276 397.757 405.298 385.755 405.32 372.033C405.366 344.591 405.422 310.278 405.466 282.795L311.043 282.64ZM310.816 419.969C310.816 420.19 310.781 420.288 310.755 420.35C310.715 420.441 310.637 420.575 310.499 420.712C310.361 420.85 310.224 420.933 310.121 420.977C310.049 421.007 309.937 421.047 309.699 421.047V515.439C362.419 515.439 405.241 472.72 405.241 419.969H310.816ZM309.699 421.047C309.5 421.047 309.395 421.018 309.341 421.003C309.275 420.983 309.192 420.948 309.091 420.881C308.86 420.728 308.648 420.483 308.528 420.216L222.448 459.011C237.391 492.149 270.726 515.439 309.699 515.439V421.047ZM222.861 419.325C222.88 419.286 222.918 419.218 223.053 419.128C223.136 419.076 223.256 419.015 223.409 418.969C223.571 418.921 223.689 418.914 223.715 418.914V513.306C261.22 513.306 293.186 491.246 308.114 459.902L222.861 419.325ZM223.715 418.914C223.739 418.914 223.86 418.921 224.021 418.969C224.172 419.015 224.292 419.076 224.375 419.128C224.511 419.218 224.55 419.286 224.568 419.325L139.315 459.902C154.242 491.246 186.211 513.306 223.715 513.306V418.914ZM138.757 420.54C138.715 420.636 138.615 420.773 138.452 420.881C138.382 420.926 138.31 420.961 138.228 420.988C138.156 421.007 138.005 421.047 137.73 421.047V515.439C176.707 515.439 210.291 492.256 225.127 458.685L138.757 420.54ZM137.73 421.047C137.537 421.047 137.432 421.016 137.337 420.974C137.209 420.92 137.031 420.813 136.854 420.636C136.676 420.459 136.573 420.286 136.523 420.168C136.487 420.083 136.46 419.993 136.46 419.816H42.0368C42.0368 472.567 85.0118 515.439 137.73 515.439V421.047ZM89.2484 419.816C136.46 419.777 136.46 419.777 136.46 419.777C136.46 419.775 136.46 419.775 136.46 419.773C136.46 419.771 136.46 419.766 136.46 419.762C136.46 419.753 136.46 419.738 136.46 419.718C136.46 419.679 136.46 419.618 136.46 419.541C136.46 419.384 136.459 419.15 136.459 418.842C136.459 418.228 136.458 417.321 136.457 416.148C136.455 413.797 136.452 410.379 136.448 406.108C136.441 397.562 136.431 385.595 136.42 371.912C136.398 344.543 136.369 310.306 136.347 282.826L41.9235 282.902C41.946 310.383 41.9745 344.622 41.9972 371.989C42.0083 385.674 42.0184 397.641 42.0254 406.186C42.0291 410.458 42.0319 413.875 42.0339 416.224C42.0348 417.4 42.0357 418.307 42.0361 418.921C42.0363 419.229 42.0365 419.462 42.0368 419.62C42.0368 419.696 42.0368 419.757 42.0368 419.797C42.0368 419.816 42.0368 419.832 42.0368 419.841C42.0368 419.845 42.0368 419.849 42.0368 419.851C42.0368 419.854 42.0368 419.854 42.0368 419.856C42.0368 419.856 42.0368 419.856 89.2484 419.816ZM97.988 236.506C98.7982 236.659 99.3822 236.816 99.7269 236.919C100.079 237.024 100.278 237.1 100.328 237.12C100.405 237.15 100.136 237.048 99.5951 236.746C99.0686 236.451 98.4297 236.047 97.7462 235.542C97.065 235.04 96.4313 234.507 95.8799 233.973C95.3269 233.44 94.9347 232.988 94.6827 232.66C94.4301 232.33 94.3857 232.215 94.4543 232.348C94.5269 232.49 94.7402 232.94 94.9369 233.696C95.1393 234.472 95.2976 235.475 95.2976 236.626H0.874512C0.874512 266.279 16.519 288.609 30.3567 301.94C43.7755 314.869 61.9847 325.73 80.2819 329.222L97.988 236.506ZM95.2976 236.626V235.713H0.874512V236.626H95.2976ZM95.2976 235.713V235.256H0.874512V235.713H95.2976ZM95.2976 235.256C95.2976 231.668 95.58 228.979 95.9526 227.062L3.26831 209.032C1.50684 218.082 0.874512 226.966 0.874512 235.256H95.2976ZM96.1345 226.073C98.1021 214.676 103.287 208.173 107.79 205.204L55.7678 126.428C26.1202 145.994 8.74177 177.26 3.08645 210.024L96.1345 226.073ZM105.188 206.801C105.655 206.534 106.114 206.27 106.479 206.06L59.3386 124.273C58.9419 124.501 58.6469 124.671 58.3693 124.831L105.188 206.801ZM106.716 205.922L59.1032 124.409L59.1017 124.411L106.716 205.922ZM106.482 206.058C107.453 205.499 107.945 205.217 108.369 204.985C108.761 204.771 108.737 204.797 108.439 204.935L68.535 119.386C64.4749 121.278 60.8046 123.428 59.3386 124.273L106.482 206.058ZM88.4869 209.357H88.6392V114.965H88.4869V209.357ZM88.6392 209.357H88.7918V114.965H88.6392V209.357ZM105.891 206.152C103.314 207.153 100.573 207.681 97.7867 207.681V113.289C88.5968 113.289 79.7576 115.035 71.6923 118.168L105.891 206.152ZM97.7867 207.681C95.145 207.681 92.499 207.168 90.0287 206.182L125.005 118.505C116.518 115.123 107.306 113.289 97.7867 113.289V207.681ZM148.581 185.633C163.739 158.919 191.636 142.195 223.715 142.195V47.8027C157.451 47.8027 98.2863 82.9594 66.4527 139.057L148.581 185.633ZM223.617 142.195C255.705 142.262 283.602 158.993 298.784 185.663L380.848 138.978C348.994 83.014 289.934 47.9404 223.811 47.8027L223.617 142.195ZM349.49 113.289C340.03 113.289 330.874 115.099 322.431 118.442L357.201 206.202C354.742 207.174 352.113 207.681 349.49 207.681V113.289ZM375.583 118.168C367.518 115.035 358.679 113.289 349.49 113.289V207.681C346.703 207.681 343.962 207.153 341.385 206.152L375.583 118.168ZM358.637 114.965H358.484V209.357H358.637V114.965ZM358.788 114.965H358.637V209.357H358.788V114.965ZM387.937 124.273C386.47 123.428 382.8 121.278 378.741 119.386L338.837 204.935C338.54 204.797 338.516 204.771 338.907 204.985C339.331 205.217 339.823 205.499 340.793 206.058L387.937 124.273ZM387.928 124.269L387.921 124.265L340.808 206.067L340.815 206.071L387.928 124.269ZM388.905 124.828C388.63 124.673 388.337 124.503 387.943 124.276L340.8 206.062C341.165 206.272 341.621 206.536 342.089 206.801L388.905 124.828ZM444.276 209.351C438.51 177.443 421.512 145.516 390.852 126.004L340.142 205.627C343.938 208.044 349.199 214.186 351.359 226.136L444.276 209.351ZM446.553 235.103C446.553 226.759 445.913 217.977 444.206 208.964L351.431 226.525C351.857 228.778 352.13 231.572 352.13 235.103H446.553ZM446.553 235.56V235.103H352.13V235.56H446.553ZM446.553 236.473V235.56H352.13V236.473H446.553ZM367.037 329.091C385.371 325.621 403.608 314.746 417.033 301.824C430.884 288.494 446.553 266.152 446.553 236.473H352.13C352.13 235.319 352.29 234.319 352.491 233.541C352.688 232.785 352.902 232.335 352.974 232.195C353.042 232.062 352.998 232.18 352.745 232.51C352.491 232.839 352.098 233.294 351.542 233.827C350.989 234.36 350.356 234.896 349.674 235.398C348.99 235.901 348.351 236.305 347.825 236.598C347.285 236.899 347.02 237 347.103 236.967C347.156 236.947 347.359 236.869 347.715 236.764C348.065 236.659 348.655 236.502 349.475 236.346L367.037 329.091Z" fill="white"/>
</g>
</g>
<path d="M322.927 185.296C323.687 171.439 335.112 160.474 349.127 160.474C352.327 160.474 355.374 161.082 358.115 162.148H358.268C358.268 162.148 358.268 162.148 358.421 162.148C360.705 163.214 362.989 164.584 365.122 165.804C382.337 176.768 393.455 195.804 397.416 217.732C398.483 223.365 398.939 229.153 398.939 235.092V235.549C398.939 235.852 398.939 236.158 398.939 236.462C398.939 263.263 367.865 283.059 354.46 283.059C339.988 283.059 346.08 245.903 346.08 231.437C346.08 230.98 346.08 230.676 346.08 230.22C334.198 218.189 324.45 202.046 323.231 189.255C323.231 188.951 323.231 188.646 323.08 188.342C323.08 187.732 323.08 187.123 323.08 186.513C322.927 186.362 322.927 185.906 322.927 185.296Z" fill="#F47171"/>
<path d="M123.827 185.296C123.066 171.439 111.641 160.474 97.6264 160.474C94.4274 160.474 91.3809 161.082 88.639 162.148H88.4866C88.4866 162.148 88.4866 162.148 88.3343 162.148C86.0493 163.214 83.7644 164.584 81.6315 165.804C64.5705 177.072 53.2979 195.954 49.4897 218.036C48.4233 223.518 47.9663 229.304 47.9663 235.245V235.702C47.9663 236.005 47.9663 236.309 47.9663 236.615C47.9663 263.416 79.0419 283.212 92.4471 283.212C106.919 283.212 100.825 246.056 100.825 231.59C100.825 231.133 100.825 230.827 100.825 230.37C112.707 218.34 122.457 202.199 123.675 189.408C123.675 189.102 123.675 188.799 123.827 188.493C123.827 187.885 123.827 187.276 123.827 186.666C123.827 186.362 123.827 185.906 123.827 185.296Z" fill="#F47171"/>
<path d="M357.968 234.482C357.968 236.766 357.815 419.96 357.815 419.96H357.662C357.662 446.611 336.032 468.234 309.373 468.234C289.724 468.234 272.815 456.509 265.198 439.606C257.734 455.29 241.892 466.103 223.459 466.103C205.027 466.103 189.185 455.29 181.719 439.606C174.255 456.509 157.346 468.234 137.544 468.234C110.886 468.234 89.1025 446.458 89.1025 419.81C89.1025 419.81 88.9502 236.613 88.9502 234.329C88.9502 153.163 149.882 94.9919 223.459 94.9919C297.035 95.1449 357.968 153.316 357.968 234.482Z" fill="#F47171"/>
<path d="M357.968 234.482C357.968 236.766 357.815 419.96 357.815 419.96H357.662C357.662 446.611 336.032 468.234 309.373 468.234C289.724 468.234 272.815 456.509 265.198 439.606C257.734 455.29 241.892 466.103 223.459 466.103C205.027 466.103 189.185 455.29 181.719 439.606C174.255 456.509 157.346 468.234 137.544 468.234C110.886 468.234 89.1025 446.458 89.1025 419.81C89.1025 419.81 88.9502 236.613 88.9502 234.329C88.9502 153.163 149.882 94.9919 223.459 94.9919C297.035 95.1449 357.968 153.316 357.968 234.482Z" fill="#F47171"/>
<path opacity="0.1" d="M357.806 367.431C357.653 394.081 336.021 415.706 309.364 415.706C297.026 415.706 285.752 410.985 277.221 403.37C270.367 397.127 260.162 396.974 253.001 402.913C244.927 409.462 234.722 413.574 223.601 413.574C212.48 413.574 202.122 409.615 194.201 402.913C187.043 396.974 176.836 397.127 169.981 403.37C161.45 410.985 150.179 415.706 137.839 415.706C111.181 415.706 89.5498 394.081 89.5498 367.431L89.0928 387.686V419.816C89.0928 446.467 110.724 468.09 137.382 468.09C157.033 468.09 173.942 456.365 181.559 439.462C189.023 455.146 204.865 465.959 223.297 465.959C241.729 465.959 257.725 455.146 265.036 439.462C272.5 456.365 289.562 468.09 309.211 468.09C335.87 468.09 357.5 446.467 357.5 419.816L357.806 367.431Z" fill="#4B194E"/>
<path d="M268.389 235.968C283.953 235.968 296.569 223.354 296.569 207.795C296.569 192.235 283.953 179.624 268.389 179.624C252.824 179.624 240.208 192.235 240.208 207.795C240.208 223.354 252.824 235.968 268.389 235.968Z" fill="white"/>
<path d="M268.387 225.609C278.229 225.609 286.209 217.632 286.209 207.79C286.209 197.951 278.229 189.974 268.387 189.974C258.542 189.974 250.564 197.951 250.564 207.79C250.564 217.632 258.542 225.609 268.387 225.609Z" fill="#491249"/>
<path d="M178.359 235.968C193.924 235.968 206.542 223.354 206.542 207.795C206.542 192.235 193.924 179.624 178.359 179.624C162.795 179.624 150.179 192.235 150.179 207.795C150.179 223.354 162.795 235.968 178.359 235.968Z" fill="white"/>
<path d="M178.357 225.609C188.199 225.609 196.179 217.632 196.179 207.79C196.179 197.951 188.199 189.974 178.357 189.974C168.515 189.974 160.535 197.951 160.535 207.79C160.535 217.632 168.515 225.609 178.357 225.609Z" fill="#491249"/>
<path d="M217.053 191.224C221.42 178.942 210.181 163.734 191.95 157.256C173.717 150.777 155.399 155.482 151.031 167.766C146.664 180.048 157.903 195.255 176.134 201.734C194.365 208.212 212.686 203.508 217.053 191.224Z" fill="#F47171"/>
<path d="M265.149 201.762C283.38 195.286 294.619 180.076 290.252 167.794C285.885 155.512 267.567 150.806 249.334 157.284C231.103 163.763 219.864 178.97 224.231 191.254C228.598 203.536 246.918 208.241 265.149 201.762Z" fill="#F47171"/>
<path d="M223.453 230.368C226.06 230.368 228.176 228.255 228.176 225.649C228.176 223.04 226.06 220.927 223.453 220.927C220.845 220.927 218.729 223.04 218.729 225.649C218.729 228.255 220.845 230.368 223.453 230.368Z" fill="#491249"/>
<path d="M244.774 248.788C242.945 246.504 241.118 243.915 237.461 243.915C230.454 243.915 230.454 252.747 223.448 252.747C216.441 252.747 216.441 243.915 209.434 243.915C205.777 243.915 203.95 246.351 202.12 248.788" stroke="#491249" stroke-width="3.14641" stroke-miterlimit="10" stroke-linecap="round" stroke-linejoin="round"/>
<path opacity="0.1" d="M336.028 172.662C328.564 176.925 323.384 184.844 322.927 193.981C322.927 194.438 322.927 194.895 322.927 195.351C322.927 195.961 322.927 196.571 322.927 197.18C322.927 197.484 322.927 197.788 323.08 198.094C324.297 210.885 334.048 227.027 345.929 239.056" stroke="#4B194E" stroke-width="7.85934" stroke-miterlimit="10" stroke-linecap="round" stroke-linejoin="round"/>
<path opacity="0.1" d="M110.726 172.662C118.19 176.925 123.369 184.844 123.826 193.981C123.826 194.438 123.826 194.895 123.826 195.351C123.826 195.961 123.826 196.571 123.826 197.18C123.826 197.484 123.826 197.788 123.674 198.094C122.455 210.885 112.706 227.027 100.824 239.056" stroke="#4B194E" stroke-width="7.85934" stroke-miterlimit="10" stroke-linecap="round" stroke-linejoin="round"/>
<path d="M46.7005 50.8244L24.3505 73.2381C20.3723 77.1536 22.0933 83.855 27.364 85.6074L65.2483 98.0706C68.4322 99.1741 71.4081 96.1282 70.5633 92.9971L59.2655 54.0975C57.7148 48.5367 50.7544 46.7275 46.7005 50.8244Z" fill="#FF9F99"/>
<path d="M414.318 102.128L389.7 67.7801C385.335 61.7495 376.162 62.4356 372.654 68.877L348.025 115.787C345.975 119.748 349.055 124.424 353.474 123.937L407.372 117.889C414.963 116.997 418.875 108.209 414.318 102.128Z" fill="#FF9F99"/>
<path d="M312.016 66.9214L300.864 65.5404C298.198 65.1733 295.461 66.4254 294.047 68.7917L288.194 78.5368C285.269 83.4115 278.115 82.8915 275.892 77.6191L271.586 67.1704C270.616 64.6315 268.061 62.8835 265.34 62.8966L254.031 62.6562C248.446 62.5863 245.238 56.0138 248.73 51.528L255.718 42.5586C257.416 40.3867 257.598 37.3867 256.291 35.0335L250.835 25.0476C248.177 20.1031 252.263 14.1479 257.74 14.9804L268.891 16.3618C271.56 16.7293 274.297 15.4768 275.711 13.1111L281.562 3.36429C284.489 -1.50914 291.64 -0.989106 293.865 4.2833L298.171 14.7313C299.142 17.2705 301.697 19.0194 304.418 19.0063L315.727 19.2453C321.309 19.3161 324.52 25.8886 321.025 30.3733L314.037 39.3423C312.339 41.5142 312.158 44.5164 313.465 46.8674L318.879 56.6147C321.676 61.6577 317.591 67.6118 312.016 66.9214Z" fill="#F47171"/>
</svg>
